<svg xmlns="http://www.w3.org/2000/svg" width="1470" height="830" viewBox="0 0 1470 830">
<rect x="0" y="0" width="1470" height="830" rx="0" fill="#ffffff" stroke="#ffffff" stroke-width="1.3"/>
<text x="35" y="35" font-family="Tinos,Times New Roman,serif" font-size="24" text-anchor="start" fill="#19344b" font-weight="bold">ERD khái niệm / Chứng từ và hàng hóa</text>
<text x="35" y="62" font-family="Tinos,Times New Roman,serif" font-size="13" text-anchor="start" fill="#6b7b8c">WMS / BA 2.0 / 27-09-2026 / DRAFT</text>
<path d="M390,300 L540,300" stroke="#526d87" fill="none" stroke-width="1.6"/>
<path d="M399.0,293.0 L399.0,307.0" stroke="#526d87" fill="none" stroke-width="1.6"/>
<ellipse cx="414.0" cy="300.0" rx="4.0" ry="4.0" fill="#ffffff" stroke="#19344b" stroke-width="1"/>
<path d="M540.0,307.0 L526.0,300.0 L540.0,293.0" stroke="#526d87" fill="none" stroke-width="1.6"/>
<path d="M540.0,300.0 L526.0,300.0" stroke="#526d87" fill="none" stroke-width="1.6"/>
<ellipse cx="516.0" cy="300.0" rx="4.0" ry="4.0" fill="#ffffff" stroke="#19344b" stroke-width="1"/>
<path d="M870,300 L1020,300" stroke="#526d87" fill="none" stroke-width="1.6"/>
<path d="M879.0,293.0 L879.0,307.0" stroke="#526d87" fill="none" stroke-width="1.6"/>
<path d="M890.0,293.0 L890.0,307.0" stroke="#526d87" fill="none" stroke-width="1.6"/>
<path d="M1020.0,307.0 L1006.0,300.0 L1020.0,293.0" stroke="#526d87" fill="none" stroke-width="1.6"/>
<path d="M1020.0,300.0 L1006.0,300.0" stroke="#526d87" fill="none" stroke-width="1.6"/>
<ellipse cx="996.0" cy="300.0" rx="4.0" ry="4.0" fill="#ffffff" stroke="#19344b" stroke-width="1"/>
<path d="M1185,375 L1185,560" stroke="#526d87" fill="none" stroke-width="1.6"/>
<path d="M1192.0,375.0 L1185.0,389.0 L1178.0,375.0" stroke="#526d87" fill="none" stroke-width="1.6"/>
<path d="M1185.0,375.0 L1185.0,389.0" stroke="#526d87" fill="none" stroke-width="1.6"/>
<ellipse cx="1185.0" cy="399.0" rx="4.0" ry="4.0" fill="#ffffff" stroke="#19344b" stroke-width="1"/>
<path d="M1178.0,551.0 L1192.0,551.0" stroke="#526d87" fill="none" stroke-width="1.6"/>
<path d="M1178.0,540.0 L1192.0,540.0" stroke="#526d87" fill="none" stroke-width="1.6"/>
<rect x="60" y="220" width="330" height="155" rx="0" fill="#f8fafc" stroke="#879caf" stroke-width="1.3"/>
<rect x="60" y="220" width="330" height="35" rx="0" fill="#19344b" stroke="#19344b" stroke-width="1.3"/>
<text x="70" y="244" font-family="Tinos,Times New Roman,serif" font-size="18" text-anchor="start" fill="#ffffff" font-weight="bold">Đối tác</text>
<text x="72" y="282" font-family="Tinos,Times New Roman,serif" font-size="16" text-anchor="start" fill="#19344b">Mã đối tác</text>
<text x="72" y="309" font-family="Tinos,Times New Roman,serif" font-size="16" text-anchor="start" fill="#19344b">Tên đối tác</text>
<rect x="540" y="220" width="330" height="155" rx="0" fill="#f8fafc" stroke="#879caf" stroke-width="1.3"/>
<rect x="540" y="220" width="330" height="35" rx="0" fill="#19344b" stroke="#19344b" stroke-width="1.3"/>
<text x="550" y="244" font-family="Tinos,Times New Roman,serif" font-size="18" text-anchor="start" fill="#ffffff" font-weight="bold">Chứng từ</text>
<text x="552" y="282" font-family="Tinos,Times New Roman,serif" font-size="16" text-anchor="start" fill="#19344b">Số phiếu</text>
<text x="552" y="309" font-family="Tinos,Times New Roman,serif" font-size="16" text-anchor="start" fill="#19344b">Loại phiếu</text>
<text x="552" y="336" font-family="Tinos,Times New Roman,serif" font-size="16" text-anchor="start" fill="#19344b">Trạng thái</text>
<rect x="1020" y="220" width="330" height="155" rx="0" fill="#f8fafc" stroke="#879caf" stroke-width="1.3"/>
<rect x="1020" y="220" width="330" height="35" rx="0" fill="#19344b" stroke="#19344b" stroke-width="1.3"/>
<text x="1030" y="244" font-family="Tinos,Times New Roman,serif" font-size="18" text-anchor="start" fill="#ffffff" font-weight="bold">Dòng chứng từ</text>
<text x="1032" y="282" font-family="Tinos,Times New Roman,serif" font-size="16" text-anchor="start" fill="#19344b">STT dòng</text>
<text x="1032" y="309" font-family="Tinos,Times New Roman,serif" font-size="16" text-anchor="start" fill="#19344b">Số lượng</text>
<text x="1032" y="336" font-family="Tinos,Times New Roman,serif" font-size="16" text-anchor="start" fill="#19344b">Đơn vị</text>
<rect x="1020" y="560" width="330" height="155" rx="0" fill="#f8fafc" stroke="#879caf" stroke-width="1.3"/>
<rect x="1020" y="560" width="330" height="35" rx="0" fill="#19344b" stroke="#19344b" stroke-width="1.3"/>
<text x="1030" y="584" font-family="Tinos,Times New Roman,serif" font-size="18" text-anchor="start" fill="#ffffff" font-weight="bold">Sản phẩm</text>
<text x="1032" y="622" font-family="Tinos,Times New Roman,serif" font-size="16" text-anchor="start" fill="#19344b">SKU</text>
<text x="1032" y="649" font-family="Tinos,Times New Roman,serif" font-size="16" text-anchor="start" fill="#19344b">Tên hàng</text>
<text x="1032" y="676" font-family="Tinos,Times New Roman,serif" font-size="16" text-anchor="start" fill="#19344b">Theo dõi</text>
<rect x="390" y="265" width="150" height="25" rx="0" fill="#ffffff" stroke="#ffffff" stroke-width="1.3"/>
<text x="465.0" y="285" font-family="Tinos,Times New Roman,serif" font-size="14" text-anchor="middle" fill="#19344b">liên quan</text>
<rect x="870" y="265" width="150" height="25" rx="0" fill="#ffffff" stroke="#ffffff" stroke-width="1.3"/>
<text x="945.0" y="285" font-family="Tinos,Times New Roman,serif" font-size="14" text-anchor="middle" fill="#19344b">gồm</text>
<rect x="1200" y="440" width="190" height="25" rx="0" fill="#ffffff" stroke="#ffffff" stroke-width="1.3"/>
<text x="1295.0" y="460" font-family="Tinos,Times New Roman,serif" font-size="14" text-anchor="middle" fill="#19344b">chỉ định</text>
<text x="35" y="798" font-family="Tinos,Times New Roman,serif" font-size="13" text-anchor="start" fill="#6b7b8c">Ch8 PDF 44-50 | View khái niệm; thuộc tính nhận diện nghiệp vụ. N:N vai trò/quyền được tách role_permission ở mô hình vật lý.</text>
</svg>