<svg xmlns="http://www.w3.org/2000/svg" width="1630" height="773" viewBox="0 0 1630 773">
<rect x="0" y="0" width="1630" height="773" rx="0" fill="#ffffff" stroke="#ffffff" stroke-width="1.3"/>
<text x="35" y="35" font-family="Tinos,Times New Roman,serif" font-size="24" text-anchor="start" fill="#19344b" font-weight="bold">ERD vật lý / operations / audit_event</text>
<text x="35" y="62" font-family="Tinos,Times New Roman,serif" font-size="13" text-anchor="start" fill="#6b7b8c">WMS / BA 2.0 / 27-09-2026 / DRAFT</text>
<path d="M650,447 L1130,447" stroke="#526d87" fill="none" stroke-width="1.6"/>
<path d="M650.0,440.0 L664.0,447.0 L650.0,454.0" stroke="#526d87" fill="none" stroke-width="1.6"/>
<path d="M650.0,447.0 L664.0,447.0" stroke="#526d87" fill="none" stroke-width="1.6"/>
<ellipse cx="674.0" cy="447.0" rx="4.0" ry="4.0" fill="#ffffff" stroke="#19344b" stroke-width="1"/>
<path d="M1121.0,454.0 L1121.0,440.0" stroke="#526d87" fill="none" stroke-width="1.6"/>
<ellipse cx="1106.0" cy="447.0" rx="4.0" ry="4.0" fill="#ffffff" stroke="#19344b" stroke-width="1"/>
<path d="M650,572 L1130,572" stroke="#526d87" fill="none" stroke-width="1.6"/>
<path d="M650.0,565.0 L664.0,572.0 L650.0,579.0" stroke="#526d87" fill="none" stroke-width="1.6"/>
<path d="M650.0,572.0 L664.0,572.0" stroke="#526d87" fill="none" stroke-width="1.6"/>
<ellipse cx="674.0" cy="572.0" rx="4.0" ry="4.0" fill="#ffffff" stroke="#19344b" stroke-width="1"/>
<path d="M1121.0,579.0 L1121.0,565.0" stroke="#526d87" fill="none" stroke-width="1.6"/>
<ellipse cx="1106.0" cy="572.0" rx="4.0" ry="4.0" fill="#ffffff" stroke="#19344b" stroke-width="1"/>
<rect x="45" y="95" width="605" height="593" rx="0" fill="#f8fafc" stroke="#879caf" stroke-width="1.3"/>
<rect x="45" y="95" width="605" height="35" rx="0" fill="#19344b" stroke="#19344b" stroke-width="1.3"/>
<text x="55" y="119" font-family="Tinos,Times New Roman,serif" font-size="18" text-anchor="start" fill="#ffffff" font-weight="bold">audit_event</text>
<text x="57" y="145" font-family="Tinos,Times New Roman,serif" font-size="16" text-anchor="start" fill="#19344b">PK id : uuid</text>
<text x="57" y="172" font-family="Tinos,Times New Roman,serif" font-size="16" text-anchor="start" fill="#19344b">action : varchar(100)</text>
<text x="57" y="199" font-family="Tinos,Times New Roman,serif" font-size="16" text-anchor="start" fill="#19344b">entity_type : varchar(80)</text>
<text x="57" y="226" font-family="Tinos,Times New Roman,serif" font-size="16" text-anchor="start" fill="#19344b">entity_id ? : uuid</text>
<text x="57" y="253" font-family="Tinos,Times New Roman,serif" font-size="16" text-anchor="start" fill="#19344b">request_id : uuid</text>
<text x="57" y="280" font-family="Tinos,Times New Roman,serif" font-size="16" text-anchor="start" fill="#19344b">occurred_at : timestamptz</text>
<text x="57" y="307" font-family="Tinos,Times New Roman,serif" font-size="16" text-anchor="start" fill="#19344b">before_data ? : jsonb</text>
<text x="57" y="334" font-family="Tinos,Times New Roman,serif" font-size="16" text-anchor="start" fill="#19344b">after_data ? : jsonb</text>
<text x="57" y="361" font-family="Tinos,Times New Roman,serif" font-size="16" text-anchor="start" fill="#19344b">reason ? : text</text>
<text x="57" y="443" font-family="Tinos,Times New Roman,serif" font-size="16" text-anchor="start" fill="#19344b">FK actor_id ? : uuid</text>
<text x="57" y="568" font-family="Tinos,Times New Roman,serif" font-size="16" text-anchor="start" fill="#19344b">FK warehouse_id ? : uuid</text>
<rect x="1130" y="388" width="440" height="110" rx="0" fill="#f8fafc" stroke="#879caf" stroke-width="1.3"/>
<rect x="1130" y="388" width="440" height="35" rx="0" fill="#19344b" stroke="#19344b" stroke-width="1.3"/>
<text x="1140" y="412" font-family="Tinos,Times New Roman,serif" font-size="18" text-anchor="start" fill="#ffffff" font-weight="bold">app_user</text>
<text x="1142" y="450" font-family="Tinos,Times New Roman,serif" font-size="16" text-anchor="start" fill="#19344b">id</text>
<rect x="1130" y="513" width="440" height="110" rx="0" fill="#f8fafc" stroke="#879caf" stroke-width="1.3"/>
<rect x="1130" y="513" width="440" height="35" rx="0" fill="#19344b" stroke="#19344b" stroke-width="1.3"/>
<text x="1140" y="537" font-family="Tinos,Times New Roman,serif" font-size="18" text-anchor="start" fill="#ffffff" font-weight="bold">warehouse</text>
<text x="1142" y="575" font-family="Tinos,Times New Roman,serif" font-size="16" text-anchor="start" fill="#19344b">id</text>
<rect x="695" y="420" width="385" height="20" rx="0" fill="#ffffff" stroke="#ffffff" stroke-width="1.3"/>
<text x="887.5" y="435" font-family="Tinos,Times New Roman,serif" font-size="14" text-anchor="middle" fill="#19344b">tham chiếu qua actor_id</text>
<rect x="695" y="545" width="385" height="20" rx="0" fill="#ffffff" stroke="#ffffff" stroke-width="1.3"/>
<text x="887.5" y="560" font-family="Tinos,Times New Roman,serif" font-size="14" text-anchor="middle" fill="#19344b">tham chiếu qua warehouse_id</text>
<text x="35" y="741" font-family="Tinos,Times New Roman,serif" font-size="13" text-anchor="start" fill="#6b7b8c">Ch8 PDF 35-61 | Mỗi entity xuất hiện một lần. ? = nullable. Bảng đích: cột liên quan; trang riêng có đầy đủ cột.</text>
</svg>