<svg xmlns="http://www.w3.org/2000/svg" width="1630" height="790" viewBox="0 0 1630 790">
<rect x="0" y="0" width="1630" height="790" rx="0" fill="#ffffff" stroke="#ffffff" stroke-width="1.3"/>
<text x="35" y="35" font-family="Tinos,Times New Roman,serif" font-size="24" text-anchor="start" fill="#19344b" font-weight="bold">ERD vật lý / fulfillment / quality_decision</text>
<text x="35" y="62" font-family="Tinos,Times New Roman,serif" font-size="13" text-anchor="start" fill="#6b7b8c">WMS / BA 2.0 / 27-09-2026 / DRAFT</text>
<path d="M650,339 L1130,339" stroke="#526d87" fill="none" stroke-width="1.6"/>
<path d="M650.0,332.0 L664.0,339.0 L650.0,346.0" stroke="#526d87" fill="none" stroke-width="1.6"/>
<path d="M650.0,339.0 L664.0,339.0" stroke="#526d87" fill="none" stroke-width="1.6"/>
<ellipse cx="674.0" cy="339.0" rx="4.0" ry="4.0" fill="#ffffff" stroke="#19344b" stroke-width="1"/>
<path d="M1121.0,346.0 L1121.0,332.0" stroke="#526d87" fill="none" stroke-width="1.6"/>
<path d="M1110.0,346.0 L1110.0,332.0" stroke="#526d87" fill="none" stroke-width="1.6"/>
<path d="M650,464 L1130,464" stroke="#526d87" fill="none" stroke-width="1.6"/>
<path d="M650.0,457.0 L664.0,464.0 L650.0,471.0" stroke="#526d87" fill="none" stroke-width="1.6"/>
<path d="M650.0,464.0 L664.0,464.0" stroke="#526d87" fill="none" stroke-width="1.6"/>
<ellipse cx="674.0" cy="464.0" rx="4.0" ry="4.0" fill="#ffffff" stroke="#19344b" stroke-width="1"/>
<path d="M1121.0,471.0 L1121.0,457.0" stroke="#526d87" fill="none" stroke-width="1.6"/>
<path d="M1110.0,471.0 L1110.0,457.0" stroke="#526d87" fill="none" stroke-width="1.6"/>
<path d="M650,589 L1130,589" stroke="#526d87" fill="none" stroke-width="1.6"/>
<path d="M650.0,582.0 L664.0,589.0 L650.0,596.0" stroke="#526d87" fill="none" stroke-width="1.6"/>
<path d="M650.0,589.0 L664.0,589.0" stroke="#526d87" fill="none" stroke-width="1.6"/>
<ellipse cx="674.0" cy="589.0" rx="4.0" ry="4.0" fill="#ffffff" stroke="#19344b" stroke-width="1"/>
<path d="M1121.0,596.0 L1121.0,582.0" stroke="#526d87" fill="none" stroke-width="1.6"/>
<ellipse cx="1106.0" cy="589.0" rx="4.0" ry="4.0" fill="#ffffff" stroke="#19344b" stroke-width="1"/>
<rect x="45" y="95" width="605" height="610" rx="0" fill="#f8fafc" stroke="#879caf" stroke-width="1.3"/>
<rect x="45" y="95" width="605" height="35" rx="0" fill="#19344b" stroke="#19344b" stroke-width="1.3"/>
<text x="55" y="119" font-family="Tinos,Times New Roman,serif" font-size="18" text-anchor="start" fill="#ffffff" font-weight="bold">quality_decision</text>
<text x="57" y="145" font-family="Tinos,Times New Roman,serif" font-size="16" text-anchor="start" fill="#19344b">PK id : uuid</text>
<text x="57" y="172" font-family="Tinos,Times New Roman,serif" font-size="16" text-anchor="start" fill="#19344b">quantity : numeric(20,6)</text>
<text x="57" y="199" font-family="Tinos,Times New Roman,serif" font-size="16" text-anchor="start" fill="#19344b">result : varchar(20)</text>
<text x="57" y="226" font-family="Tinos,Times New Roman,serif" font-size="16" text-anchor="start" fill="#19344b">reason : text</text>
<text x="57" y="253" font-family="Tinos,Times New Roman,serif" font-size="16" text-anchor="start" fill="#19344b">decided_at : timestamptz</text>
<text x="57" y="335" font-family="Tinos,Times New Roman,serif" font-size="16" text-anchor="start" fill="#19344b">FK receipt_move_id : uuid</text>
<text x="57" y="460" font-family="Tinos,Times New Roman,serif" font-size="16" text-anchor="start" fill="#19344b">FK decided_by : uuid</text>
<text x="57" y="585" font-family="Tinos,Times New Roman,serif" font-size="16" text-anchor="start" fill="#19344b">FK followup_document_id ? : uuid</text>
<rect x="1130" y="280" width="440" height="110" rx="0" fill="#f8fafc" stroke="#879caf" stroke-width="1.3"/>
<rect x="1130" y="280" width="440" height="35" rx="0" fill="#19344b" stroke="#19344b" stroke-width="1.3"/>
<text x="1140" y="304" font-family="Tinos,Times New Roman,serif" font-size="18" text-anchor="start" fill="#ffffff" font-weight="bold">stock_move</text>
<text x="1142" y="342" font-family="Tinos,Times New Roman,serif" font-size="16" text-anchor="start" fill="#19344b">id</text>
<rect x="1130" y="405" width="440" height="110" rx="0" fill="#f8fafc" stroke="#879caf" stroke-width="1.3"/>
<rect x="1130" y="405" width="440" height="35" rx="0" fill="#19344b" stroke="#19344b" stroke-width="1.3"/>
<text x="1140" y="429" font-family="Tinos,Times New Roman,serif" font-size="18" text-anchor="start" fill="#ffffff" font-weight="bold">app_user</text>
<text x="1142" y="467" font-family="Tinos,Times New Roman,serif" font-size="16" text-anchor="start" fill="#19344b">id</text>
<rect x="1130" y="530" width="440" height="110" rx="0" fill="#f8fafc" stroke="#879caf" stroke-width="1.3"/>
<rect x="1130" y="530" width="440" height="35" rx="0" fill="#19344b" stroke="#19344b" stroke-width="1.3"/>
<text x="1140" y="554" font-family="Tinos,Times New Roman,serif" font-size="18" text-anchor="start" fill="#ffffff" font-weight="bold">document</text>
<text x="1142" y="592" font-family="Tinos,Times New Roman,serif" font-size="16" text-anchor="start" fill="#19344b">id</text>
<rect x="695" y="312" width="385" height="20" rx="0" fill="#ffffff" stroke="#ffffff" stroke-width="1.3"/>
<text x="887.5" y="327" font-family="Tinos,Times New Roman,serif" font-size="14" text-anchor="middle" fill="#19344b">tham chiếu qua receipt_move_id</text>
<rect x="695" y="437" width="385" height="20" rx="0" fill="#ffffff" stroke="#ffffff" stroke-width="1.3"/>
<text x="887.5" y="452" font-family="Tinos,Times New Roman,serif" font-size="14" text-anchor="middle" fill="#19344b">tham chiếu qua decided_by</text>
<rect x="695" y="562" width="385" height="20" rx="0" fill="#ffffff" stroke="#ffffff" stroke-width="1.3"/>
<text x="887.5" y="577" font-family="Tinos,Times New Roman,serif" font-size="14" text-anchor="middle" fill="#19344b">tham chiếu qua followup_document_id</text>
<text x="35" y="758" font-family="Tinos,Times New Roman,serif" font-size="13" text-anchor="start" fill="#6b7b8c">Ch8 PDF 35-61 | Mỗi entity xuất hiện một lần. ? = nullable. Bảng đích: cột liên quan; trang riêng có đầy đủ cột.</text>
</svg>