<svg xmlns="http://www.w3.org/2000/svg" width="1630" height="736" viewBox="0 0 1630 736">
<rect x="0" y="0" width="1630" height="736" rx="0" fill="#ffffff" stroke="#ffffff" stroke-width="1.3"/>
<text x="35" y="35" font-family="Tinos,Times New Roman,serif" font-size="24" text-anchor="start" fill="#19344b" font-weight="bold">ERD vật lý / counting / count_line</text>
<text x="35" y="62" font-family="Tinos,Times New Roman,serif" font-size="13" text-anchor="start" fill="#6b7b8c">WMS / BA 2.0 / 27-09-2026 / DRAFT</text>
<path d="M650,285 L1130,285" stroke="#526d87" fill="none" stroke-width="1.6"/>
<path d="M650.0,278.0 L664.0,285.0 L650.0,292.0" stroke="#526d87" fill="none" stroke-width="1.6"/>
<path d="M650.0,285.0 L664.0,285.0" stroke="#526d87" fill="none" stroke-width="1.6"/>
<ellipse cx="674.0" cy="285.0" rx="4.0" ry="4.0" fill="#ffffff" stroke="#19344b" stroke-width="1"/>
<path d="M1121.0,292.0 L1121.0,278.0" stroke="#526d87" fill="none" stroke-width="1.6"/>
<path d="M1110.0,292.0 L1110.0,278.0" stroke="#526d87" fill="none" stroke-width="1.6"/>
<path d="M650,410 L1130,410" stroke="#526d87" fill="none" stroke-width="1.6"/>
<path d="M650.0,403.0 L664.0,410.0 L650.0,417.0" stroke="#526d87" fill="none" stroke-width="1.6"/>
<path d="M650.0,410.0 L664.0,410.0" stroke="#526d87" fill="none" stroke-width="1.6"/>
<ellipse cx="674.0" cy="410.0" rx="4.0" ry="4.0" fill="#ffffff" stroke="#19344b" stroke-width="1"/>
<path d="M1121.0,417.0 L1121.0,403.0" stroke="#526d87" fill="none" stroke-width="1.6"/>
<path d="M1110.0,417.0 L1110.0,403.0" stroke="#526d87" fill="none" stroke-width="1.6"/>
<path d="M650,535 L1130,535" stroke="#526d87" fill="none" stroke-width="1.6"/>
<path d="M650.0,528.0 L664.0,535.0 L650.0,542.0" stroke="#526d87" fill="none" stroke-width="1.6"/>
<path d="M650.0,535.0 L664.0,535.0" stroke="#526d87" fill="none" stroke-width="1.6"/>
<ellipse cx="674.0" cy="535.0" rx="4.0" ry="4.0" fill="#ffffff" stroke="#19344b" stroke-width="1"/>
<path d="M1121.0,542.0 L1121.0,528.0" stroke="#526d87" fill="none" stroke-width="1.6"/>
<path d="M1110.0,542.0 L1110.0,528.0" stroke="#526d87" fill="none" stroke-width="1.6"/>
<rect x="45" y="95" width="605" height="556" rx="0" fill="#f8fafc" stroke="#879caf" stroke-width="1.3"/>
<rect x="45" y="95" width="605" height="35" rx="0" fill="#19344b" stroke="#19344b" stroke-width="1.3"/>
<text x="55" y="119" font-family="Tinos,Times New Roman,serif" font-size="18" text-anchor="start" fill="#ffffff" font-weight="bold">count_line</text>
<text x="57" y="145" font-family="Tinos,Times New Roman,serif" font-size="16" text-anchor="start" fill="#19344b">PK id : uuid</text>
<text x="57" y="172" font-family="Tinos,Times New Roman,serif" font-size="16" text-anchor="start" fill="#19344b">snapshot_quantity : numeric(20,6)</text>
<text x="57" y="199" font-family="Tinos,Times New Roman,serif" font-size="16" text-anchor="start" fill="#19344b">approved_quantity ? : numeric(20,6)</text>
<text x="57" y="281" font-family="Tinos,Times New Roman,serif" font-size="16" text-anchor="start" fill="#19344b">FK session_id : uuid</text>
<text x="57" y="406" font-family="Tinos,Times New Roman,serif" font-size="16" text-anchor="start" fill="#19344b">FK stock_item_id : uuid</text>
<text x="57" y="531" font-family="Tinos,Times New Roman,serif" font-size="16" text-anchor="start" fill="#19344b">FK location_id : uuid</text>
<rect x="1130" y="226" width="440" height="110" rx="0" fill="#f8fafc" stroke="#879caf" stroke-width="1.3"/>
<rect x="1130" y="226" width="440" height="35" rx="0" fill="#19344b" stroke="#19344b" stroke-width="1.3"/>
<text x="1140" y="250" font-family="Tinos,Times New Roman,serif" font-size="18" text-anchor="start" fill="#ffffff" font-weight="bold">count_session</text>
<text x="1142" y="288" font-family="Tinos,Times New Roman,serif" font-size="16" text-anchor="start" fill="#19344b">id</text>
<rect x="1130" y="351" width="440" height="110" rx="0" fill="#f8fafc" stroke="#879caf" stroke-width="1.3"/>
<rect x="1130" y="351" width="440" height="35" rx="0" fill="#19344b" stroke="#19344b" stroke-width="1.3"/>
<text x="1140" y="375" font-family="Tinos,Times New Roman,serif" font-size="18" text-anchor="start" fill="#ffffff" font-weight="bold">stock_item</text>
<text x="1142" y="413" font-family="Tinos,Times New Roman,serif" font-size="16" text-anchor="start" fill="#19344b">id</text>
<rect x="1130" y="476" width="440" height="110" rx="0" fill="#f8fafc" stroke="#879caf" stroke-width="1.3"/>
<rect x="1130" y="476" width="440" height="35" rx="0" fill="#19344b" stroke="#19344b" stroke-width="1.3"/>
<text x="1140" y="500" font-family="Tinos,Times New Roman,serif" font-size="18" text-anchor="start" fill="#ffffff" font-weight="bold">location</text>
<text x="1142" y="538" font-family="Tinos,Times New Roman,serif" font-size="16" text-anchor="start" fill="#19344b">id</text>
<rect x="695" y="258" width="385" height="20" rx="0" fill="#ffffff" stroke="#ffffff" stroke-width="1.3"/>
<text x="887.5" y="273" font-family="Tinos,Times New Roman,serif" font-size="14" text-anchor="middle" fill="#19344b">tham chiếu qua session_id</text>
<rect x="695" y="383" width="385" height="20" rx="0" fill="#ffffff" stroke="#ffffff" stroke-width="1.3"/>
<text x="887.5" y="398" font-family="Tinos,Times New Roman,serif" font-size="14" text-anchor="middle" fill="#19344b">tham chiếu qua stock_item_id</text>
<rect x="695" y="508" width="385" height="20" rx="0" fill="#ffffff" stroke="#ffffff" stroke-width="1.3"/>
<text x="887.5" y="523" font-family="Tinos,Times New Roman,serif" font-size="14" text-anchor="middle" fill="#19344b">tham chiếu qua location_id</text>
<text x="35" y="704" font-family="Tinos,Times New Roman,serif" font-size="13" text-anchor="start" fill="#6b7b8c">Ch8 PDF 35-61 | Mỗi entity xuất hiện một lần. ? = nullable. Bảng đích: cột liên quan; trang riêng có đầy đủ cột.</text>
</svg>