<svg xmlns="http://www.w3.org/2000/svg" width="1630" height="942" viewBox="0 0 1630 942">
<rect x="0" y="0" width="1630" height="942" rx="0" fill="#ffffff" stroke="#ffffff" stroke-width="1.3"/>
<text x="35" y="35" font-family="Tinos,Times New Roman,serif" font-size="24" text-anchor="start" fill="#19344b" font-weight="bold">ERD vật lý / documents / document_line</text>
<text x="35" y="62" font-family="Tinos,Times New Roman,serif" font-size="13" text-anchor="start" fill="#6b7b8c">WMS / BA 2.0 / 27-09-2026 / DRAFT</text>
<path d="M650,366 L1130,366" stroke="#526d87" fill="none" stroke-width="1.6"/>
<path d="M650.0,359.0 L664.0,366.0 L650.0,373.0" stroke="#526d87" fill="none" stroke-width="1.6"/>
<path d="M650.0,366.0 L664.0,366.0" stroke="#526d87" fill="none" stroke-width="1.6"/>
<ellipse cx="674.0" cy="366.0" rx="4.0" ry="4.0" fill="#ffffff" stroke="#19344b" stroke-width="1"/>
<path d="M1121.0,373.0 L1121.0,359.0" stroke="#526d87" fill="none" stroke-width="1.6"/>
<path d="M1110.0,373.0 L1110.0,359.0" stroke="#526d87" fill="none" stroke-width="1.6"/>
<path d="M650,491 L1130,491" stroke="#526d87" fill="none" stroke-width="1.6"/>
<path d="M650.0,484.0 L664.0,491.0 L650.0,498.0" stroke="#526d87" fill="none" stroke-width="1.6"/>
<path d="M650.0,491.0 L664.0,491.0" stroke="#526d87" fill="none" stroke-width="1.6"/>
<ellipse cx="674.0" cy="491.0" rx="4.0" ry="4.0" fill="#ffffff" stroke="#19344b" stroke-width="1"/>
<path d="M1121.0,498.0 L1121.0,484.0" stroke="#526d87" fill="none" stroke-width="1.6"/>
<path d="M1110.0,498.0 L1110.0,484.0" stroke="#526d87" fill="none" stroke-width="1.6"/>
<path d="M650,616 L1130,616" stroke="#526d87" fill="none" stroke-width="1.6"/>
<path d="M650.0,609.0 L664.0,616.0 L650.0,623.0" stroke="#526d87" fill="none" stroke-width="1.6"/>
<path d="M650.0,616.0 L664.0,616.0" stroke="#526d87" fill="none" stroke-width="1.6"/>
<ellipse cx="674.0" cy="616.0" rx="4.0" ry="4.0" fill="#ffffff" stroke="#19344b" stroke-width="1"/>
<path d="M1121.0,623.0 L1121.0,609.0" stroke="#526d87" fill="none" stroke-width="1.6"/>
<path d="M1110.0,623.0 L1110.0,609.0" stroke="#526d87" fill="none" stroke-width="1.6"/>
<path d="M650,736 L1010,736 L1010,801 L650,801" stroke="#526d87" fill="none" stroke-width="1.6"/>
<path d="M650.0,729.0 L664.0,736.0 L650.0,743.0" stroke="#526d87" fill="none" stroke-width="1.6"/>
<path d="M650.0,736.0 L664.0,736.0" stroke="#526d87" fill="none" stroke-width="1.6"/>
<ellipse cx="674.0" cy="736.0" rx="4.0" ry="4.0" fill="#ffffff" stroke="#19344b" stroke-width="1"/>
<path d="M659.0,794.0 L659.0,808.0" stroke="#526d87" fill="none" stroke-width="1.6"/>
<ellipse cx="674.0" cy="801.0" rx="4.0" ry="4.0" fill="#ffffff" stroke="#19344b" stroke-width="1"/>
<rect x="45" y="95" width="605" height="762" rx="0" fill="#f8fafc" stroke="#879caf" stroke-width="1.3"/>
<rect x="45" y="95" width="605" height="35" rx="0" fill="#19344b" stroke="#19344b" stroke-width="1.3"/>
<text x="55" y="119" font-family="Tinos,Times New Roman,serif" font-size="18" text-anchor="start" fill="#ffffff" font-weight="bold">document_line</text>
<text x="57" y="145" font-family="Tinos,Times New Roman,serif" font-size="16" text-anchor="start" fill="#19344b">PK id : uuid</text>
<text x="57" y="172" font-family="Tinos,Times New Roman,serif" font-size="16" text-anchor="start" fill="#19344b">line_no : integer</text>
<text x="57" y="199" font-family="Tinos,Times New Roman,serif" font-size="16" text-anchor="start" fill="#19344b">quantity : numeric(20,6)</text>
<text x="57" y="226" font-family="Tinos,Times New Roman,serif" font-size="16" text-anchor="start" fill="#19344b">factor_snapshot : numeric(20,8)</text>
<text x="57" y="253" font-family="Tinos,Times New Roman,serif" font-size="16" text-anchor="start" fill="#19344b">base_quantity : numeric(20,6)</text>
<text x="57" y="280" font-family="Tinos,Times New Roman,serif" font-size="16" text-anchor="start" fill="#19344b">reference_unit_price ? : numeric(20,4)</text>
<text x="57" y="362" font-family="Tinos,Times New Roman,serif" font-size="16" text-anchor="start" fill="#19344b">FK document_id : uuid</text>
<text x="57" y="487" font-family="Tinos,Times New Roman,serif" font-size="16" text-anchor="start" fill="#19344b">FK product_id : uuid</text>
<text x="57" y="612" font-family="Tinos,Times New Roman,serif" font-size="16" text-anchor="start" fill="#19344b">FK uom_id : uuid</text>
<text x="57" y="732" font-family="Tinos,Times New Roman,serif" font-size="16" text-anchor="start" fill="#19344b">FK source_line_id ? : uuid</text>
<rect x="1130" y="307" width="440" height="110" rx="0" fill="#f8fafc" stroke="#879caf" stroke-width="1.3"/>
<rect x="1130" y="307" width="440" height="35" rx="0" fill="#19344b" stroke="#19344b" stroke-width="1.3"/>
<text x="1140" y="331" font-family="Tinos,Times New Roman,serif" font-size="18" text-anchor="start" fill="#ffffff" font-weight="bold">document</text>
<text x="1142" y="369" font-family="Tinos,Times New Roman,serif" font-size="16" text-anchor="start" fill="#19344b">id</text>
<rect x="1130" y="432" width="440" height="110" rx="0" fill="#f8fafc" stroke="#879caf" stroke-width="1.3"/>
<rect x="1130" y="432" width="440" height="35" rx="0" fill="#19344b" stroke="#19344b" stroke-width="1.3"/>
<text x="1140" y="456" font-family="Tinos,Times New Roman,serif" font-size="18" text-anchor="start" fill="#ffffff" font-weight="bold">product</text>
<text x="1142" y="494" font-family="Tinos,Times New Roman,serif" font-size="16" text-anchor="start" fill="#19344b">id</text>
<rect x="1130" y="557" width="440" height="110" rx="0" fill="#f8fafc" stroke="#879caf" stroke-width="1.3"/>
<rect x="1130" y="557" width="440" height="35" rx="0" fill="#19344b" stroke="#19344b" stroke-width="1.3"/>
<text x="1140" y="581" font-family="Tinos,Times New Roman,serif" font-size="18" text-anchor="start" fill="#ffffff" font-weight="bold">uom</text>
<text x="1142" y="619" font-family="Tinos,Times New Roman,serif" font-size="16" text-anchor="start" fill="#19344b">id</text>
<rect x="695" y="339" width="385" height="20" rx="0" fill="#ffffff" stroke="#ffffff" stroke-width="1.3"/>
<text x="887.5" y="354" font-family="Tinos,Times New Roman,serif" font-size="14" text-anchor="middle" fill="#19344b">tham chiếu qua document_id</text>
<rect x="695" y="464" width="385" height="20" rx="0" fill="#ffffff" stroke="#ffffff" stroke-width="1.3"/>
<text x="887.5" y="479" font-family="Tinos,Times New Roman,serif" font-size="14" text-anchor="middle" fill="#19344b">tham chiếu qua product_id</text>
<rect x="695" y="589" width="385" height="20" rx="0" fill="#ffffff" stroke="#ffffff" stroke-width="1.3"/>
<text x="887.5" y="604" font-family="Tinos,Times New Roman,serif" font-size="14" text-anchor="middle" fill="#19344b">tham chiếu qua uom_id</text>
<rect x="700" y="748" width="300" height="22" rx="0" fill="#ffffff" stroke="#ffffff" stroke-width="1.3"/>
<text x="850.0" y="765" font-family="Tinos,Times New Roman,serif" font-size="14" text-anchor="middle" fill="#19344b">cấp cha / nguồn: source_line_id</text>
<text x="35" y="910" font-family="Tinos,Times New Roman,serif" font-size="13" text-anchor="start" fill="#6b7b8c">Ch8 PDF 35-61 | Mỗi entity xuất hiện một lần. ? = nullable. Bảng đích: cột liên quan; trang riêng có đầy đủ cột.</text>
</svg>